

Comedy spoof played for laughs about movies like "300", Troy, Braveheart and Gladiater. when a slobby unfit spartan general needs to lead the way forward for his army of men he falls flat on his face.


Cast: Kristanna Loken ...
Hottessa
Rip Torn ...
King Looney
Tony Cox ...
Minoritees
Sophie Monk ...
Princess Ellen
Ian Ziering ...
Testiclees
Deon Richmond ...
Jamal

--------------------------------------------------------------------------------
Format;Avi

File Size:860mb

Video: ID : 0
Format : MPEG-4 Visual
Format profile : Advanced Simple@L5
Format settings, BVOP : Yes
Format settings, QPel : No
Format settings, GMC : No warppoints
Format settings, Matrix : Default (H.263)
Codec ID : XVID
Codec ID/Hint : XviD
Duration : 1h 23mn
Bit rate : 1 049 Kbps
Width : 672 pixels
Height : 384 pixels
Display aspect ratio : 16:9
Frame rate : 25.000 fps
Color space : YUV
Chroma subsampling : 4:2:0
Bit depth : 8 bits
Scan type : Progressive
Bits/(Pixel*Frame) : 0.163
Stream size : 624 MiB (73%)
Writing library : XviD 1.2.1 (UTC 2008-12-04)

Audio: ID : 1
Format : AC-3
Format/Info : Audio Coding 3
Mode extension : CM (complete main)
Codec ID : 2000
Duration : 1h 23mn
Bit rate mode : Constant
Bit rate : 384 Kbps
Channel(s) : 6 channels
Channel positions : Front: L C R, Side: L R, LFE
Sampling rate : 48.0 KHz
Bit depth : 16 bits
Stream size : 228 MiB (27%)
Alignment : Aligned on interleaves
Interleave, duration : 32 ms (0.80 video frame)


Duration:1:23

Release Date:2010

Language:English 
-------------------------------------------------------------------------------- 
http://img404.imageshack.us/img404/2918/vlcsnap2010121101h09m19.png 
http://img337.imageshack.us/img337/3609/vlcsnap2010121100h35m16.png 
http://img204.imageshack.us/img204/5909/vlcsnap2010121100h36m17.png
 
http://www.imdb.com/title/tt1059887/

Encoded by Exclusive666 :)